<svg width="440" height="456" viewBox="0 0 440 456" fill="none" xmlns="http://www.w3.org/2000/svg">
<path d="M290.8 256.144C317.52 256.144 331.66 234.414 334.22 215.074C338.64 181.794 326.74 154.524 302.22 132.454C281.01 113.364 255.48 105.394 227.4 104.354C206.73 103.594 186.4 105.454 167.2 113.614C135.61 127.014 113.76 149.694 106.2 183.534C97.9696 220.334 108.51 252.124 136.3 277.874C139.67 280.994 143.59 283.514 147.12 286.484C148.137 287.285 148.804 288.45 148.98 289.734C149.066 327.234 149.066 364.731 148.98 402.224C148.907 402.708 148.8 403.185 148.66 403.654C139.95 400.094 131.15 396.974 122.76 392.984C78.5896 371.984 44.6296 340.084 21.6596 296.844C8.86662 272.703 1.58203 246.027 0.3296 218.734C-0.8804 195.184 1.1396 172.104 8.0796 149.524C17.2911 119.543 33.4099 92.1413 55.1396 69.5239C85.2796 37.7539 121.87 17.0239 164.28 6.80386C205 -3.00614 245.83 -2.34616 285.98 9.68384C338.09 25.3138 379.98 55.5439 409.62 101.424C431.4 135.164 441.55 172.544 439.13 212.864C437.19 245.364 427.91 275.634 409.13 302.494C392.53 326.244 371.57 344.884 343.64 354.354C327.27 359.904 310.53 361.524 293.56 356.834C291.71 356.324 290.56 355.754 290.56 353.424C290.56 321.554 290.56 289.684 290.48 257.814C290.554 257.251 290.661 256.694 290.8 256.144Z" fill="white"/>
<path d="M262.73 455.304H177.52C177.42 453.144 177.24 451.084 177.24 449.024C177.24 385.544 177.24 322.067 177.24 258.594C177.24 248.874 177.02 239.034 178.39 229.454C181.68 206.364 198.64 191.454 221.78 190.654C234.27 190.234 246.78 190.594 259.27 190.464C262.04 190.464 262.81 191.324 262.81 194.134C262.73 279.101 262.706 364.071 262.74 449.044L262.73 455.304Z" fill="white"/>
</svg>
