<svg width="207" height="285" viewBox="0 0 207 285" fill="none" xmlns="http://www.w3.org/2000/svg">
<g opacity="0.95" filter="url(#filter0_b_1408_9457)">
<path d="M69.4877 69.7691L169.829 -115.516C180.934 -136.022 210.427 -135.827 221.26 -115.177L338.903 109.066C343.499 117.828 343.336 128.323 338.47 136.938L230.643 327.814C219.054 348.328 189.174 347.323 178.991 326.076L68.8338 96.2416C64.7985 87.8222 65.0416 77.979 69.4877 69.7691Z" fill="url(#paint0_radial_1408_9457)" fill-opacity="0.15"/>
<path d="M69.8664 69.9741L170.208 -115.311C181.148 -135.513 210.206 -135.322 220.879 -114.977L338.522 109.266C343.05 117.898 342.89 128.239 338.095 136.726L230.268 327.602C218.85 347.813 189.412 346.823 179.379 325.89L69.2222 96.0555C65.2465 87.7605 65.486 78.0628 69.8664 69.9741Z" stroke="url(#paint1_radial_1408_9457)" stroke-width="0.861305"/>
</g>
<g opacity="0.95" filter="url(#filter1_b_1408_9457)">
<path d="M100.706 71.0779L186.251 -86.8838C197.355 -107.389 226.848 -107.195 237.682 -86.5448L338.646 105.909C343.243 114.67 343.08 125.166 338.213 133.78L246.256 296.564C234.667 317.078 204.788 316.073 194.604 294.825L100.052 97.5505C96.017 89.131 96.2601 79.2878 100.706 71.0779Z" fill="url(#paint2_radial_1408_9457)" fill-opacity="0.15"/>
<path d="M101.085 71.283L186.629 -86.6788C197.57 -106.881 226.627 -106.689 237.3 -86.3447L338.265 106.109C342.794 114.741 342.633 125.081 337.838 133.568L245.881 296.352C234.463 316.563 205.026 315.573 194.992 294.639L100.441 97.3643C96.4649 89.0693 96.7045 79.3716 101.085 71.283Z" stroke="url(#paint3_radial_1408_9457)" stroke-width="0.861305"/>
</g>
<g opacity="0.95" filter="url(#filter2_b_1408_9457)">
<path d="M127.962 73.7586L201.277 -61.6217C212.382 -82.1268 241.875 -81.9324 252.708 -61.2827L339.89 104.898C344.487 113.66 344.324 124.155 339.457 132.77L260.615 272.336C249.026 292.851 219.147 291.845 208.963 270.598L127.308 100.231C123.273 91.8117 123.516 81.9685 127.962 73.7586Z" fill="url(#paint4_radial_1408_9457)" fill-opacity="0.15"/>
<path d="M128.341 73.9636L201.656 -61.4166C212.597 -81.6187 241.654 -81.4272 252.327 -61.0826L339.509 105.098C344.037 113.73 343.877 124.071 339.082 132.558L260.24 272.124C248.823 292.336 219.385 291.345 209.352 270.412L127.697 100.045C123.721 91.75 123.96 82.0523 128.341 73.9636Z" stroke="url(#paint5_radial_1408_9457)" stroke-width="0.861305"/>
</g>
<g opacity="0.95" filter="url(#filter3_b_1408_9457)">
<path d="M156.268 74.9443L216.165 -35.6586C227.27 -56.1637 256.763 -55.9693 267.596 -35.3195L339.654 102.034C344.251 110.795 344.088 121.291 339.221 129.905L274.77 243.997C263.181 264.512 233.302 263.506 223.118 242.259L155.614 101.417C151.579 92.9974 151.822 83.1542 156.268 74.9443Z" fill="url(#paint6_radial_1408_9457)" fill-opacity="0.15"/>
<path d="M156.647 75.1494L216.544 -35.4535C227.484 -55.6556 256.542 -55.4641 267.215 -35.1195L339.273 102.234C343.802 110.866 343.641 121.206 338.847 129.693L274.395 243.785C262.978 263.997 233.54 263.006 223.507 242.073L156.003 101.231C152.027 92.9357 152.266 83.238 156.647 75.1494Z" stroke="url(#paint7_radial_1408_9457)" stroke-width="0.861305"/>
</g>
<g opacity="0.95" filter="url(#filter4_b_1408_9457)">
<path d="M185.212 76.1757L232.896 -11.8765C244.001 -32.3816 273.494 -32.1872 284.327 -11.5374L342.621 99.579C347.218 108.341 347.055 118.836 342.188 127.451L290.835 218.357C279.246 238.872 249.366 237.866 239.183 216.619L184.558 102.648C180.522 94.2288 180.765 84.3857 185.212 76.1757Z" fill="url(#paint8_radial_1408_9457)" fill-opacity="0.15"/>
<path d="M185.59 76.3808L233.275 -11.6714C244.215 -31.8735 273.273 -31.6819 283.946 -11.3373L342.24 99.779C346.768 108.411 346.608 118.751 341.813 127.239L290.46 218.145C279.042 238.357 249.604 237.366 239.571 216.433L184.946 102.462C180.97 94.1671 181.21 84.4694 185.59 76.3808Z" stroke="url(#paint9_radial_1408_9457)" stroke-width="0.861305"/>
</g>
<g opacity="0.95" filter="url(#filter5_b_1408_9457)">
<path d="M213.834 78.9858L250.178 11.8749C261.283 -8.63025 290.776 -8.43579 301.609 12.214L347.121 98.966C351.718 107.728 351.555 118.223 346.688 126.838L307.497 196.213C295.909 216.728 266.029 215.723 255.845 194.475L213.181 105.458C209.145 97.0389 209.388 87.1958 213.834 78.9858Z" fill="url(#paint10_radial_1408_9457)" fill-opacity="0.15"/>
<path d="M214.213 79.1909L250.557 12.08C261.498 -8.12214 290.555 -7.93056 301.228 12.414L346.74 99.166C351.269 107.798 351.108 118.138 346.313 126.626L307.122 196.002C295.705 216.213 266.267 215.223 256.234 194.289L213.569 105.272C209.593 96.9772 209.833 87.2795 214.213 79.1909Z" stroke="url(#paint11_radial_1408_9457)" stroke-width="0.861305"/>
</g>
<defs>
<filter id="filter0_b_1408_9457" x="52.3114" y="-144.441" width="303.587" height="500.723" filterUnits="userSpaceOnUse" color-interpolation-filters="sRGB">
<feFlood flood-opacity="0" result="BackgroundImageFix"/>
<feGaussianBlur in="BackgroundImageFix" stdDeviation="6.83004"/>
<feComposite in2="SourceAlpha" operator="in" result="effect1_backgroundBlur_1408_9457"/>
<feBlend mode="normal" in="SourceGraphic" in2="effect1_backgroundBlur_1408_9457" result="shape"/>
</filter>
<filter id="filter1_b_1408_9457" x="83.5296" y="-115.808" width="272.113" height="440.84" filterUnits="userSpaceOnUse" color-interpolation-filters="sRGB">
<feFlood flood-opacity="0" result="BackgroundImageFix"/>
<feGaussianBlur in="BackgroundImageFix" stdDeviation="6.83004"/>
<feComposite in2="SourceAlpha" operator="in" result="effect1_backgroundBlur_1408_9457"/>
<feBlend mode="normal" in="SourceGraphic" in2="effect1_backgroundBlur_1408_9457" result="shape"/>
</filter>
<filter id="filter2_b_1408_9457" x="110.786" y="-90.5458" width="246.1" height="391.351" filterUnits="userSpaceOnUse" color-interpolation-filters="sRGB">
<feFlood flood-opacity="0" result="BackgroundImageFix"/>
<feGaussianBlur in="BackgroundImageFix" stdDeviation="6.83004"/>
<feComposite in2="SourceAlpha" operator="in" result="effect1_backgroundBlur_1408_9457"/>
<feBlend mode="normal" in="SourceGraphic" in2="effect1_backgroundBlur_1408_9457" result="shape"/>
</filter>
<filter id="filter3_b_1408_9457" x="139.092" y="-64.5829" width="217.558" height="337.049" filterUnits="userSpaceOnUse" color-interpolation-filters="sRGB">
<feFlood flood-opacity="0" result="BackgroundImageFix"/>
<feGaussianBlur in="BackgroundImageFix" stdDeviation="6.83004"/>
<feComposite in2="SourceAlpha" operator="in" result="effect1_backgroundBlur_1408_9457"/>
<feBlend mode="normal" in="SourceGraphic" in2="effect1_backgroundBlur_1408_9457" result="shape"/>
</filter>
<filter id="filter4_b_1408_9457" x="168.035" y="-40.8007" width="191.582" height="287.626" filterUnits="userSpaceOnUse" color-interpolation-filters="sRGB">
<feFlood flood-opacity="0" result="BackgroundImageFix"/>
<feGaussianBlur in="BackgroundImageFix" stdDeviation="6.83004"/>
<feComposite in2="SourceAlpha" operator="in" result="effect1_backgroundBlur_1408_9457"/>
<feBlend mode="normal" in="SourceGraphic" in2="effect1_backgroundBlur_1408_9457" result="shape"/>
</filter>
<filter id="filter5_b_1408_9457" x="196.658" y="-17.0492" width="167.459" height="241.731" filterUnits="userSpaceOnUse" color-interpolation-filters="sRGB">
<feFlood flood-opacity="0" result="BackgroundImageFix"/>
<feGaussianBlur in="BackgroundImageFix" stdDeviation="6.83004"/>
<feComposite in2="SourceAlpha" operator="in" result="effect1_backgroundBlur_1408_9457"/>
<feBlend mode="normal" in="SourceGraphic" in2="effect1_backgroundBlur_1408_9457" result="shape"/>
</filter>
<radialGradient id="paint0_radial_1408_9457" cx="0" cy="0" r="1" gradientUnits="userSpaceOnUse" gradientTransform="translate(128.046 -118.483) rotate(40.0906) scale(289.354 355.202)">
<stop stop-color="#F6F1E7"/>
<stop offset="0.25" stop-color="#4CB7A3"/>
<stop offset="0.5" stop-color="#3F59E4"/>
<stop offset="0.75" stop-color="#4016A0"/>
<stop offset="1" stop-color="#191919"/>
</radialGradient>
<radialGradient id="paint1_radial_1408_9457" cx="0" cy="0" r="1" gradientUnits="userSpaceOnUse" gradientTransform="translate(25.2603 76.0731) rotate(44.9402) scale(364.033 201.383)">
<stop stop-color="#191919"/>
<stop offset="0.177083" stop-color="#4016A0"/>
<stop offset="0.34375" stop-color="#3F59E4"/>
<stop offset="0.5" stop-color="#4CB7A3"/>
<stop offset="0.682292" stop-color="#F6F1E7"/>
<stop offset="0.807292" stop-color="#4016A0"/>
</radialGradient>
<radialGradient id="paint2_radial_1408_9457" cx="0" cy="0" r="1" gradientUnits="userSpaceOnUse" gradientTransform="translate(151.986 -94.8516) rotate(40.0906) scale(257.271 315.817)">
<stop stop-color="#F6F1E7"/>
<stop offset="0.25" stop-color="#4CB7A3"/>
<stop offset="0.5" stop-color="#3F59E4"/>
<stop offset="0.75" stop-color="#4016A0"/>
<stop offset="1" stop-color="#191919"/>
</radialGradient>
<radialGradient id="paint3_radial_1408_9457" cx="0" cy="0" r="1" gradientUnits="userSpaceOnUse" gradientTransform="translate(60.5979 78.1321) rotate(44.9403) scale(323.669 179.053)">
<stop stop-color="#191919"/>
<stop offset="0.177083" stop-color="#4016A0"/>
<stop offset="0.34375" stop-color="#3F59E4"/>
<stop offset="0.5" stop-color="#4CB7A3"/>
<stop offset="0.682292" stop-color="#F6F1E7"/>
<stop offset="0.807292" stop-color="#4016A0"/>
</radialGradient>
<radialGradient id="paint4_radial_1408_9457" cx="0" cy="0" r="1" gradientUnits="userSpaceOnUse" gradientTransform="translate(173.228 -73.7227) rotate(40.0906) scale(230.756 283.268)">
<stop stop-color="#F6F1E7"/>
<stop offset="0.25" stop-color="#4CB7A3"/>
<stop offset="0.5" stop-color="#3F59E4"/>
<stop offset="0.75" stop-color="#4016A0"/>
<stop offset="1" stop-color="#191919"/>
</radialGradient>
<radialGradient id="paint5_radial_1408_9457" cx="0" cy="0" r="1" gradientUnits="userSpaceOnUse" gradientTransform="translate(91.2581 81.4328) rotate(44.9403) scale(290.311 160.6)">
<stop stop-color="#191919"/>
<stop offset="0.177083" stop-color="#4016A0"/>
<stop offset="0.34375" stop-color="#3F59E4"/>
<stop offset="0.5" stop-color="#4CB7A3"/>
<stop offset="0.682292" stop-color="#F6F1E7"/>
<stop offset="0.807292" stop-color="#4016A0"/>
</radialGradient>
<radialGradient id="paint6_radial_1408_9457" cx="0" cy="0" r="1" gradientUnits="userSpaceOnUse" gradientTransform="translate(194.934 -52.2948) rotate(40.0906) scale(201.662 247.554)">
<stop stop-color="#F6F1E7"/>
<stop offset="0.25" stop-color="#4CB7A3"/>
<stop offset="0.5" stop-color="#3F59E4"/>
<stop offset="0.75" stop-color="#4016A0"/>
<stop offset="1" stop-color="#191919"/>
</radialGradient>
<radialGradient id="paint7_radial_1408_9457" cx="0" cy="0" r="1" gradientUnits="userSpaceOnUse" gradientTransform="translate(123.299 83.2987) rotate(44.9403) scale(253.709 140.351)">
<stop stop-color="#191919"/>
<stop offset="0.177083" stop-color="#4016A0"/>
<stop offset="0.34375" stop-color="#3F59E4"/>
<stop offset="0.5" stop-color="#4CB7A3"/>
<stop offset="0.682292" stop-color="#F6F1E7"/>
<stop offset="0.807292" stop-color="#4016A0"/>
</radialGradient>
<radialGradient id="paint8_radial_1408_9457" cx="0" cy="0" r="1" gradientUnits="userSpaceOnUse" gradientTransform="translate(217.871 -32.6404) rotate(40.0906) scale(175.183 215.049)">
<stop stop-color="#F6F1E7"/>
<stop offset="0.25" stop-color="#4CB7A3"/>
<stop offset="0.5" stop-color="#3F59E4"/>
<stop offset="0.75" stop-color="#4016A0"/>
<stop offset="1" stop-color="#191919"/>
</radialGradient>
<radialGradient id="paint9_radial_1408_9457" cx="0" cy="0" r="1" gradientUnits="userSpaceOnUse" gradientTransform="translate(155.642 85.1492) rotate(44.9403) scale(220.396 121.923)">
<stop stop-color="#191919"/>
<stop offset="0.177083" stop-color="#4016A0"/>
<stop offset="0.34375" stop-color="#3F59E4"/>
<stop offset="0.5" stop-color="#4CB7A3"/>
<stop offset="0.682292" stop-color="#F6F1E7"/>
<stop offset="0.807292" stop-color="#4016A0"/>
</radialGradient>
<radialGradient id="paint10_radial_1408_9457" cx="0" cy="0" r="1" gradientUnits="userSpaceOnUse" gradientTransform="translate(240.917 -12.7221) rotate(40.0906) scale(150.594 184.864)">
<stop stop-color="#F6F1E7"/>
<stop offset="0.25" stop-color="#4CB7A3"/>
<stop offset="0.5" stop-color="#3F59E4"/>
<stop offset="0.75" stop-color="#4016A0"/>
<stop offset="1" stop-color="#191919"/>
</radialGradient>
<radialGradient id="paint11_radial_1408_9457" cx="0" cy="0" r="1" gradientUnits="userSpaceOnUse" gradientTransform="translate(187.422 88.5342) rotate(44.9403) scale(189.46 104.809)">
<stop stop-color="#191919"/>
<stop offset="0.177083" stop-color="#4016A0"/>
<stop offset="0.34375" stop-color="#3F59E4"/>
<stop offset="0.5" stop-color="#4CB7A3"/>
<stop offset="0.682292" stop-color="#F6F1E7"/>
<stop offset="0.807292" stop-color="#4016A0"/>
</radialGradient>
</defs>
</svg>
